<svg width="329" height="177" viewBox="0 0 329 177" fill="none" xmlns="http://www.w3.org/2000/svg">
<g clip-path="url(#clip0_2_345)">
<path d="M49.337 85.0387C29.2422 88.029 9.45042 100.195 2.47808 120.08C-4.35084 139.555 3.22536 161.182 21.6152 170.948C40.1057 180.768 63.7274 178.305 80.4446 165.969C96.331 154.245 103.94 134.196 98.9486 114.912C93.4412 93.6345 70.553 77.1012 48.5901 84.9674C45.1559 86.1974 46.6363 91.7215 50.1078 90.4782C67.1515 84.3739 85.6058 95.4993 91.9218 111.684C98.3551 128.169 93.5763 147.002 80.4288 158.681C67.1323 170.492 47.5045 174.421 30.7049 168.69C12.2617 162.398 2.0694 144.313 6.87383 125.288C11.9424 105.216 31.4727 93.4338 50.8547 90.5495C54.476 90.0107 52.9368 84.503 49.337 85.0387Z" fill="#01010C"/>
<path d="M199.87 85.0387C179.775 88.029 159.984 100.195 153.011 120.08C146.182 139.555 153.759 161.182 172.148 170.948C190.639 180.768 214.261 178.305 230.978 165.969C246.864 154.245 254.473 134.196 249.482 114.912C243.974 93.6345 221.086 77.1012 199.123 84.9674C195.689 86.1974 197.17 91.7215 200.641 90.4782C217.685 84.3739 236.139 95.4993 242.455 111.684C248.888 128.169 244.11 147.002 230.962 158.681C217.665 170.492 198.038 174.421 181.238 168.69C162.795 162.398 152.603 144.313 157.407 125.288C162.476 105.216 182.006 93.4338 201.388 90.5495C205.009 90.0107 203.47 84.503 199.87 85.0387Z" fill="#01010C"/>
<path d="M53.2875 132.499C68.686 104.875 79.9911 75.1366 86.781 44.2409C87.1431 42.5935 85.9805 40.4337 84.0285 40.6238C74.0345 41.5971 66.7193 50.7895 69.8847 60.8523C73.2745 71.6285 84.5636 71.716 93.8524 70.1521C97.4676 69.5435 95.9344 64.0353 92.3347 64.6413C86.93 65.5512 79.5444 66.6688 76.1984 61.0911C72.3981 54.7558 76.9956 47.0236 84.0285 46.3387L81.2759 42.7216C74.5868 73.1591 63.5295 102.398 48.358 129.614C46.5658 132.829 51.495 135.714 53.2875 132.499Z" fill="#01010C"/>
<path d="M82.081 62.0686C110.176 63.0787 138.272 64.0888 166.367 65.0989C170.041 65.231 170.036 59.5158 166.367 59.3839C138.272 58.3738 110.176 57.3637 82.081 56.3536C78.4065 56.2215 78.4119 61.9367 82.081 62.0686Z" fill="#01010C"/>
<path d="M140.599 140.66C151.54 110.351 162.482 80.0427 173.423 49.7341C173.809 48.6632 173.188 46.9869 172.111 46.5072C169.576 45.3779 167.13 44.7685 164.393 44.293C161.818 43.8457 157.696 43.4857 156.089 41.0079C152.978 36.2119 159.937 35.0356 162.942 35.15C165.562 35.2497 167.813 36.1753 170.3 36.6048C172.565 36.996 175.205 36.2172 177.432 35.8551C178.959 35.6069 180.482 35.327 182.013 35.1099C182.546 35.0344 183.88 35.0538 184.376 34.8184C186.181 33.9604 185.432 37.1569 183.751 33.0037C185.113 36.3682 190.638 34.8975 189.256 31.4845C187.679 27.5901 182.295 29.3115 179.145 29.8113C176.795 30.1842 174.112 31.0261 171.723 30.9375C169.259 30.8461 165.347 29.4633 162.084 29.412C155.95 29.3157 148.169 33.2376 149.678 40.5852C151.586 49.8772 162.659 48.5148 169.23 51.4419L167.918 48.2149C156.977 78.5235 146.035 108.832 135.094 139.141C133.843 142.606 139.358 144.098 140.599 140.66Z" fill="#01010C"/>
<path d="M201.317 128.708C190.865 105.949 180.412 83.19 169.959 60.4311C168.426 57.0934 163.504 59.9937 165.03 63.3155C175.482 86.0744 185.935 108.833 196.388 131.592C197.921 134.93 202.843 132.03 201.317 128.708Z" fill="#01010C"/>
<path d="M75.6945 75.2929C97.376 95.8445 117.471 118.05 135.679 141.744C137.888 144.618 142.849 141.776 140.608 138.859C122.096 114.769 101.78 92.1513 79.7314 71.2518C77.0643 68.7237 73.0201 72.7578 75.6945 75.2929Z" fill="#01010C"/>
<path d="M135.393 141.852C139.33 146.679 142.529 152.744 144.379 158.775L147.132 155.158C143.482 155.186 139.832 155.214 136.182 155.242C134.689 155.254 133.258 156.548 133.327 158.1C133.396 159.638 134.582 160.969 136.182 160.957C139.832 160.929 143.482 160.901 147.132 160.873C148.939 160.859 150.436 159.052 149.884 157.256C147.696 150.126 144.136 143.582 139.43 137.811C138.481 136.648 136.364 136.752 135.393 137.811C134.26 139.046 134.381 140.611 135.393 141.852Z" fill="#01010C"/>
</g>
<g clip-path="url(#clip1_2_345)">
<path d="M227.054 62.6829C238.805 38.9946 263.374 23.3378 285.218 26.49C296.091 28.0589 305.805 33.9631 311.795 43.1826C317.547 52.0351 320.389 66.1978 310.908 77.0916C306.335 82.3458 299.91 84.3811 294.261 83.8654C287.02 83.2044 281.567 78.3998 277.005 73.2576C276.032 72.1615 278.009 70.2149 278.981 71.311C282.912 75.7407 287.482 79.9266 293.523 81.0373C298.252 81.9067 303.948 80.7348 308.228 76.6196C318.478 66.7615 314.801 52.2154 309.149 44.1369C297.774 27.8793 275.208 23.9256 255.322 35.3678C244.562 41.5593 235.102 51.5001 229.279 63.2376C228.488 64.8326 226.255 64.293 227.054 62.6829Z" fill="#01010C"/>
<path d="M230.392 35.8405C229.511 45.8209 228.631 55.8012 227.751 65.7816L226.425 64.5813C235.282 62.1022 244.139 59.6232 252.996 57.1441C254.554 56.7082 254.812 59.2384 253.248 59.6763C244.391 62.1554 235.533 64.6345 226.676 67.1135C225.865 67.3407 225.273 66.7891 225.35 65.9133C226.23 55.9329 227.11 45.9526 227.991 35.9722C228.141 34.268 230.541 34.147 230.392 35.8405Z" fill="#01010C"/>
</g>
<defs>
<clipPath id="clip0_2_345">
<rect width="251" height="148" fill="white" transform="translate(0 29)"/>
</clipPath>
<clipPath id="clip1_2_345">
<rect width="92.3851" height="70" fill="white" transform="matrix(0.83867 0.544639 0.544639 -0.83867 213 58.7069)"/>
</clipPath>
</defs>
</svg>
