<svg width="345" height="65" viewBox="0 0 345 65" fill="none" xmlns="http://www.w3.org/2000/svg">
<path d="M98.896 27.64C98.4907 26.8933 97.904 26.328 97.136 25.944C96.3893 25.5387 95.504 25.336 94.48 25.336C92.7093 25.336 91.2907 25.9227 90.224 27.096C89.1573 28.248 88.624 29.7947 88.624 31.736C88.624 33.8053 89.1787 35.4267 90.288 36.6C91.4187 37.752 92.9653 38.328 94.928 38.328C96.272 38.328 97.4027 37.9867 98.32 37.304C99.2587 36.6213 99.9413 35.64 100.368 34.36H93.424V30.328H105.328V35.416C104.923 36.7813 104.229 38.0507 103.248 39.224C102.288 40.3973 101.061 41.3467 99.568 42.072C98.0747 42.7973 96.3893 43.16 94.512 43.16C92.2933 43.16 90.3093 42.68 88.56 41.72C86.832 40.7387 85.4773 39.384 84.496 37.656C83.536 35.928 83.056 33.9547 83.056 31.736C83.056 29.5173 83.536 27.544 84.496 25.816C85.4773 24.0667 86.832 22.712 88.56 21.752C90.288 20.7707 92.2613 20.28 94.48 20.28C97.168 20.28 99.4293 20.9307 101.264 22.232C103.12 23.5333 104.347 25.336 104.944 27.64H98.896ZM125.991 25.144V43H120.519V40.568C119.964 41.3573 119.207 41.9973 118.247 42.488C117.308 42.9573 116.263 43.192 115.111 43.192C113.746 43.192 112.54 42.8933 111.495 42.296C110.45 41.6773 109.639 40.792 109.063 39.64C108.487 38.488 108.199 37.1333 108.199 35.576V25.144H113.639V34.84C113.639 36.0347 113.948 36.9627 114.567 37.624C115.186 38.2853 116.018 38.616 117.063 38.616C118.13 38.616 118.972 38.2853 119.591 37.624C120.21 36.9627 120.519 36.0347 120.519 34.84V25.144H125.991ZM146.753 33.784C146.753 34.296 146.722 34.8293 146.658 35.384H134.274C134.359 36.4933 134.711 37.3467 135.33 37.944C135.97 38.52 136.748 38.808 137.666 38.808C139.031 38.808 139.98 38.232 140.514 37.08H146.338C146.039 38.2533 145.495 39.3093 144.706 40.248C143.938 41.1867 142.967 41.9227 141.794 42.456C140.62 42.9893 139.308 43.256 137.858 43.256C136.108 43.256 134.551 42.8827 133.186 42.136C131.82 41.3893 130.754 40.3227 129.986 38.936C129.218 37.5493 128.834 35.928 128.834 34.072C128.834 32.216 129.207 30.5947 129.954 29.208C130.722 27.8213 131.788 26.7547 133.154 26.008C134.519 25.2613 136.087 24.888 137.858 24.888C139.586 24.888 141.122 25.2507 142.466 25.976C143.81 26.7013 144.855 27.736 145.602 29.08C146.37 30.424 146.753 31.992 146.753 33.784ZM141.154 32.344C141.154 31.4053 140.834 30.6587 140.194 30.104C139.554 29.5493 138.754 29.272 137.794 29.272C136.876 29.272 136.098 29.5387 135.458 30.072C134.839 30.6053 134.455 31.3627 134.306 32.344H141.154ZM156.904 43.256C155.347 43.256 153.96 42.9893 152.744 42.456C151.528 41.9227 150.568 41.1973 149.864 40.28C149.16 39.3413 148.766 38.296 148.68 37.144H154.088C154.152 37.7627 154.44 38.264 154.952 38.648C155.464 39.032 156.094 39.224 156.84 39.224C157.523 39.224 158.046 39.096 158.408 38.84C158.792 38.5627 158.984 38.2107 158.984 37.784C158.984 37.272 158.718 36.8987 158.184 36.664C157.651 36.408 156.787 36.1307 155.592 35.832C154.312 35.5333 153.246 35.224 152.392 34.904C151.539 34.5627 150.803 34.04 150.184 33.336C149.566 32.6107 149.256 31.64 149.256 30.424C149.256 29.4 149.534 28.472 150.088 27.64C150.664 26.7867 151.496 26.1147 152.584 25.624C153.694 25.1333 155.006 24.888 156.52 24.888C158.76 24.888 160.52 25.4427 161.8 26.552C163.102 27.6613 163.848 29.1333 164.04 30.968H158.984C158.899 30.3493 158.622 29.8587 158.152 29.496C157.704 29.1333 157.107 28.952 156.36 28.952C155.72 28.952 155.23 29.08 154.888 29.336C154.547 29.5707 154.376 29.9013 154.376 30.328C154.376 30.84 154.643 31.224 155.176 31.48C155.731 31.736 156.584 31.992 157.736 32.248C159.059 32.5893 160.136 32.9307 160.968 33.272C161.8 33.592 162.526 34.1253 163.144 34.872C163.784 35.5973 164.115 36.5787 164.136 37.816C164.136 38.8613 163.838 39.8 163.24 40.632C162.664 41.4427 161.822 42.0827 160.712 42.552C159.624 43.0213 158.355 43.256 156.904 43.256ZM174.748 43.256C173.191 43.256 171.804 42.9893 170.588 42.456C169.372 41.9227 168.412 41.1973 167.708 40.28C167.004 39.3413 166.609 38.296 166.524 37.144H171.932C171.996 37.7627 172.284 38.264 172.796 38.648C173.308 39.032 173.937 39.224 174.684 39.224C175.367 39.224 175.889 39.096 176.252 38.84C176.636 38.5627 176.828 38.2107 176.828 37.784C176.828 37.272 176.561 36.8987 176.028 36.664C175.495 36.408 174.631 36.1307 173.436 35.832C172.156 35.5333 171.089 35.224 170.236 34.904C169.383 34.5627 168.647 34.04 168.028 33.336C167.409 32.6107 167.1 31.64 167.1 30.424C167.1 29.4 167.377 28.472 167.932 27.64C168.508 26.7867 169.34 26.1147 170.428 25.624C171.537 25.1333 172.849 24.888 174.364 24.888C176.604 24.888 178.364 25.4427 179.644 26.552C180.945 27.6613 181.692 29.1333 181.884 30.968H176.828C176.743 30.3493 176.465 29.8587 175.996 29.496C175.548 29.1333 174.951 28.952 174.204 28.952C173.564 28.952 173.073 29.08 172.732 29.336C172.391 29.5707 172.22 29.9013 172.22 30.328C172.22 30.84 172.487 31.224 173.02 31.48C173.575 31.736 174.428 31.992 175.58 32.248C176.903 32.5893 177.98 32.9307 178.812 33.272C179.644 33.592 180.369 34.1253 180.988 34.872C181.628 35.5973 181.959 36.5787 181.98 37.816C181.98 38.8613 181.681 39.8 181.084 40.632C180.508 41.4427 179.665 42.0827 178.556 42.552C177.468 43.0213 176.199 43.256 174.748 43.256ZM208.269 20.536V24.92H202.317V43H196.845V24.92H190.893V20.536H208.269ZM221.991 24.952C224.039 24.952 225.682 25.6347 226.919 27C228.157 28.344 228.775 30.2 228.775 32.568V43H223.335V33.304C223.335 32.1093 223.026 31.1813 222.407 30.52C221.789 29.8587 220.957 29.528 219.911 29.528C218.866 29.528 218.034 29.8587 217.415 30.52C216.797 31.1813 216.487 32.1093 216.487 33.304V43H211.015V19.32H216.487V27.544C217.042 26.7547 217.799 26.1253 218.759 25.656C219.719 25.1867 220.797 24.952 221.991 24.952ZM249.41 33.784C249.41 34.296 249.378 34.8293 249.314 35.384H236.93C237.015 36.4933 237.367 37.3467 237.986 37.944C238.626 38.52 239.404 38.808 240.322 38.808C241.687 38.808 242.636 38.232 243.17 37.08H248.994C248.695 38.2533 248.151 39.3093 247.362 40.248C246.594 41.1867 245.623 41.9227 244.45 42.456C243.276 42.9893 241.964 43.256 240.514 43.256C238.764 43.256 237.207 42.8827 235.842 42.136C234.476 41.3893 233.41 40.3227 232.642 38.936C231.874 37.5493 231.49 35.928 231.49 34.072C231.49 32.216 231.863 30.5947 232.61 29.208C233.378 27.8213 234.444 26.7547 235.81 26.008C237.175 25.2613 238.743 24.888 240.514 24.888C242.242 24.888 243.778 25.2507 245.122 25.976C246.466 26.7013 247.511 27.736 248.258 29.08C249.026 30.424 249.41 31.992 249.41 33.784ZM243.81 32.344C243.81 31.4053 243.49 30.6587 242.85 30.104C242.21 29.5493 241.41 29.272 240.45 29.272C239.532 29.272 238.754 29.5387 238.114 30.072C237.495 30.6053 237.111 31.3627 236.962 32.344H243.81ZM276.198 27.768C276.198 29.0693 275.899 30.264 275.302 31.352C274.704 32.4187 273.787 33.2827 272.55 33.944C271.312 34.6053 269.776 34.936 267.942 34.936H264.55V43H259.078V20.536H267.942C269.734 20.536 271.248 20.8453 272.486 21.464C273.723 22.0827 274.651 22.936 275.27 24.024C275.888 25.112 276.198 26.36 276.198 27.768ZM267.526 30.584C268.571 30.584 269.35 30.3387 269.862 29.848C270.374 29.3573 270.63 28.664 270.63 27.768C270.63 26.872 270.374 26.1787 269.862 25.688C269.35 25.1973 268.571 24.952 267.526 24.952H264.55V30.584H267.526ZM284.519 28.12C285.159 27.1387 285.959 26.3707 286.919 25.816C287.879 25.24 288.945 24.952 290.119 24.952V30.744H288.615C287.249 30.744 286.225 31.0427 285.543 31.64C284.86 32.216 284.519 33.24 284.519 34.712V43H279.047V25.144H284.519V28.12ZM295.486 23.288C294.526 23.288 293.737 23.0107 293.118 22.456C292.521 21.88 292.222 21.176 292.222 20.344C292.222 19.4907 292.521 18.7867 293.118 18.232C293.737 17.656 294.526 17.368 295.486 17.368C296.425 17.368 297.193 17.656 297.79 18.232C298.409 18.7867 298.718 19.4907 298.718 20.344C298.718 21.176 298.409 21.88 297.79 22.456C297.193 23.0107 296.425 23.288 295.486 23.288ZM298.206 25.144V43H292.734V25.144H298.206ZM301.084 34.072C301.084 32.216 301.457 30.5947 302.204 29.208C302.972 27.8213 304.028 26.7547 305.372 26.008C306.737 25.2613 308.294 24.888 310.044 24.888C312.284 24.888 314.15 25.4747 315.644 26.648C317.158 27.8213 318.15 29.4747 318.62 31.608H312.796C312.305 30.2427 311.356 29.56 309.948 29.56C308.945 29.56 308.145 29.9547 307.548 30.744C306.95 31.512 306.652 32.6213 306.652 34.072C306.652 35.5227 306.95 36.6427 307.548 37.432C308.145 38.2 308.945 38.584 309.948 38.584C311.356 38.584 312.305 37.9013 312.796 36.536H318.62C318.15 38.6267 317.158 40.2693 315.644 41.464C314.129 42.6587 312.262 43.256 310.044 43.256C308.294 43.256 306.737 42.8827 305.372 42.136C304.028 41.3893 302.972 40.3227 302.204 38.936C301.457 37.5493 301.084 35.928 301.084 34.072ZM338.378 33.784C338.378 34.296 338.347 34.8293 338.283 35.384H325.899C325.984 36.4933 326.336 37.3467 326.955 37.944C327.595 38.52 328.373 38.808 329.291 38.808C330.656 38.808 331.605 38.232 332.139 37.08H337.963C337.664 38.2533 337.12 39.3093 336.331 40.248C335.563 41.1867 334.592 41.9227 333.419 42.456C332.245 42.9893 330.933 43.256 329.483 43.256C327.733 43.256 326.176 42.8827 324.811 42.136C323.445 41.3893 322.379 40.3227 321.611 38.936C320.843 37.5493 320.459 35.928 320.459 34.072C320.459 32.216 320.832 30.5947 321.579 29.208C322.347 27.8213 323.413 26.7547 324.779 26.008C326.144 25.2613 327.712 24.888 329.483 24.888C331.211 24.888 332.747 25.2507 334.091 25.976C335.435 26.7013 336.48 27.736 337.227 29.08C337.995 30.424 338.378 31.992 338.378 33.784ZM332.779 32.344C332.779 31.4053 332.459 30.6587 331.819 30.104C331.179 29.5493 330.379 29.272 329.419 29.272C328.501 29.272 327.723 29.5387 327.083 30.072C326.464 30.6053 326.08 31.3627 325.931 32.344H332.779Z" fill="#FAFAFA"/>
<path d="M58 0H7C3.13401 0 0 3.13401 0 7V58C0 61.866 3.13401 65 7 65H58C61.866 65 65 61.866 65 58V7C65 3.13401 61.866 0 58 0Z" fill="#FAFAFA"/>
<path d="M42.8 25.7311V24.75C42.8 20.3325 36.1797 17 27.4 17C18.6203 17 12 20.3325 12 24.75V31.7955C12 35.4749 16.5937 38.3988 23.2 39.2742V40.25C23.2 44.6675 29.8203 48 38.6 48C47.3797 48 54 44.6675 54 40.25V33.2045C54 29.5585 49.5515 26.6311 42.8 25.7311ZM51.2 33.2045C51.2 35.5331 45.8117 38.1364 38.6 38.1364C37.9472 38.1364 37.2997 38.1135 36.661 38.0712C40.4357 36.6868 42.8 34.4375 42.8 31.7955V28.5792C48.0272 29.363 51.2 31.4907 51.2 33.2045ZM23.2 36.419V32.2287C24.5926 32.4114 25.9956 32.502 27.4 32.5C28.8044 32.502 30.2074 32.4114 31.6 32.2287V36.419C30.2095 36.6258 28.8056 36.7288 27.4 36.7273C25.9944 36.7288 24.5905 36.6258 23.2 36.419ZM40 29.3172V31.7955C40 33.2732 37.8282 34.8602 34.4 35.8237V31.7074C36.6592 31.1561 38.572 30.3353 40 29.3172ZM27.4 19.8182C34.6117 19.8182 40 22.4215 40 24.75C40 27.0785 34.6117 29.6818 27.4 29.6818C20.1883 29.6818 14.8 27.0785 14.8 24.75C14.8 22.4215 20.1883 19.8182 27.4 19.8182ZM14.8 31.7955V29.3172C16.228 30.3353 18.1407 31.1561 20.4 31.7074V35.8237C16.9717 34.8602 14.8 33.2732 14.8 31.7955ZM26 40.25V39.5155C26.4602 39.5331 26.9257 39.5455 27.4 39.5455C28.079 39.5455 28.7422 39.5226 29.3932 39.4838C30.1165 39.7444 30.8531 39.9655 31.6 40.1461V44.2782C28.1717 43.3148 26 41.7278 26 40.25ZM34.4 44.8736V40.6727C35.7922 40.8611 37.1953 40.9552 38.6 40.9545C40.0044 40.9565 41.4074 40.8659 42.8 40.6833V44.8736C40.0149 45.2846 37.1851 45.2846 34.4 44.8736ZM45.6 44.2782V40.1619C47.8592 39.6106 49.772 38.7898 51.2 37.7718V40.25C51.2 41.7278 49.0282 43.3148 45.6 44.2782Z" fill="#18181B"/>
</svg>
