<svg width="375" height="74" viewBox="0 0 375 74" fill="none" xmlns="http://www.w3.org/2000/svg">
<path d="M128.896 28.64C128.491 27.8933 127.904 27.328 127.136 26.944C126.389 26.5387 125.504 26.336 124.48 26.336C122.709 26.336 121.291 26.9227 120.224 28.096C119.157 29.248 118.624 30.7947 118.624 32.736C118.624 34.8053 119.179 36.4267 120.288 37.6C121.419 38.752 122.965 39.328 124.928 39.328C126.272 39.328 127.403 38.9867 128.32 38.304C129.259 37.6213 129.941 36.64 130.368 35.36H123.424V31.328H135.328V36.416C134.923 37.7813 134.229 39.0507 133.248 40.224C132.288 41.3973 131.061 42.3467 129.568 43.072C128.075 43.7973 126.389 44.16 124.512 44.16C122.293 44.16 120.309 43.68 118.56 42.72C116.832 41.7387 115.477 40.384 114.496 38.656C113.536 36.928 113.056 34.9547 113.056 32.736C113.056 30.5173 113.536 28.544 114.496 26.816C115.477 25.0667 116.832 23.712 118.56 22.752C120.288 21.7707 122.261 21.28 124.48 21.28C127.168 21.28 129.429 21.9307 131.264 23.232C133.12 24.5333 134.347 26.336 134.944 28.64H128.896ZM155.991 26.144V44H150.519V41.568C149.964 42.3573 149.207 42.9973 148.247 43.488C147.308 43.9573 146.263 44.192 145.111 44.192C143.746 44.192 142.54 43.8933 141.495 43.296C140.45 42.6773 139.639 41.792 139.063 40.64C138.487 39.488 138.199 38.1333 138.199 36.576V26.144H143.639V35.84C143.639 37.0347 143.948 37.9627 144.567 38.624C145.186 39.2853 146.018 39.616 147.063 39.616C148.13 39.616 148.972 39.2853 149.591 38.624C150.21 37.9627 150.519 37.0347 150.519 35.84V26.144H155.991ZM176.753 34.784C176.753 35.296 176.722 35.8293 176.658 36.384H164.274C164.359 37.4933 164.711 38.3467 165.33 38.944C165.97 39.52 166.748 39.808 167.666 39.808C169.031 39.808 169.98 39.232 170.514 38.08H176.338C176.039 39.2533 175.495 40.3093 174.706 41.248C173.938 42.1867 172.967 42.9227 171.794 43.456C170.62 43.9893 169.308 44.256 167.858 44.256C166.108 44.256 164.551 43.8827 163.186 43.136C161.82 42.3893 160.754 41.3227 159.986 39.936C159.218 38.5493 158.834 36.928 158.834 35.072C158.834 33.216 159.207 31.5947 159.954 30.208C160.722 28.8213 161.788 27.7547 163.154 27.008C164.519 26.2613 166.087 25.888 167.858 25.888C169.586 25.888 171.122 26.2507 172.466 26.976C173.81 27.7013 174.855 28.736 175.602 30.08C176.37 31.424 176.753 32.992 176.753 34.784ZM171.154 33.344C171.154 32.4053 170.834 31.6587 170.194 31.104C169.554 30.5493 168.754 30.272 167.794 30.272C166.876 30.272 166.098 30.5387 165.458 31.072C164.839 31.6053 164.455 32.3627 164.306 33.344H171.154ZM186.904 44.256C185.347 44.256 183.96 43.9893 182.744 43.456C181.528 42.9227 180.568 42.1973 179.864 41.28C179.16 40.3413 178.766 39.296 178.68 38.144H184.088C184.152 38.7627 184.44 39.264 184.952 39.648C185.464 40.032 186.094 40.224 186.84 40.224C187.523 40.224 188.046 40.096 188.408 39.84C188.792 39.5627 188.984 39.2107 188.984 38.784C188.984 38.272 188.718 37.8987 188.184 37.664C187.651 37.408 186.787 37.1307 185.592 36.832C184.312 36.5333 183.246 36.224 182.392 35.904C181.539 35.5627 180.803 35.04 180.184 34.336C179.566 33.6107 179.256 32.64 179.256 31.424C179.256 30.4 179.534 29.472 180.088 28.64C180.664 27.7867 181.496 27.1147 182.584 26.624C183.694 26.1333 185.006 25.888 186.52 25.888C188.76 25.888 190.52 26.4427 191.8 27.552C193.102 28.6613 193.848 30.1333 194.04 31.968H188.984C188.899 31.3493 188.622 30.8587 188.152 30.496C187.704 30.1333 187.107 29.952 186.36 29.952C185.72 29.952 185.23 30.08 184.888 30.336C184.547 30.5707 184.376 30.9013 184.376 31.328C184.376 31.84 184.643 32.224 185.176 32.48C185.731 32.736 186.584 32.992 187.736 33.248C189.059 33.5893 190.136 33.9307 190.968 34.272C191.8 34.592 192.526 35.1253 193.144 35.872C193.784 36.5973 194.115 37.5787 194.136 38.816C194.136 39.8613 193.838 40.8 193.24 41.632C192.664 42.4427 191.822 43.0827 190.712 43.552C189.624 44.0213 188.355 44.256 186.904 44.256ZM204.748 44.256C203.191 44.256 201.804 43.9893 200.588 43.456C199.372 42.9227 198.412 42.1973 197.708 41.28C197.004 40.3413 196.609 39.296 196.524 38.144H201.932C201.996 38.7627 202.284 39.264 202.796 39.648C203.308 40.032 203.937 40.224 204.684 40.224C205.367 40.224 205.889 40.096 206.252 39.84C206.636 39.5627 206.828 39.2107 206.828 38.784C206.828 38.272 206.561 37.8987 206.028 37.664C205.495 37.408 204.631 37.1307 203.436 36.832C202.156 36.5333 201.089 36.224 200.236 35.904C199.383 35.5627 198.647 35.04 198.028 34.336C197.409 33.6107 197.1 32.64 197.1 31.424C197.1 30.4 197.377 29.472 197.932 28.64C198.508 27.7867 199.34 27.1147 200.428 26.624C201.537 26.1333 202.849 25.888 204.364 25.888C206.604 25.888 208.364 26.4427 209.644 27.552C210.945 28.6613 211.692 30.1333 211.884 31.968H206.828C206.743 31.3493 206.465 30.8587 205.996 30.496C205.548 30.1333 204.951 29.952 204.204 29.952C203.564 29.952 203.073 30.08 202.732 30.336C202.391 30.5707 202.22 30.9013 202.22 31.328C202.22 31.84 202.487 32.224 203.02 32.48C203.575 32.736 204.428 32.992 205.58 33.248C206.903 33.5893 207.98 33.9307 208.812 34.272C209.644 34.592 210.369 35.1253 210.988 35.872C211.628 36.5973 211.959 37.5787 211.98 38.816C211.98 39.8613 211.681 40.8 211.084 41.632C210.508 42.4427 209.665 43.0827 208.556 43.552C207.468 44.0213 206.199 44.256 204.748 44.256ZM238.269 21.536V25.92H232.317V44H226.845V25.92H220.893V21.536H238.269ZM251.991 25.952C254.039 25.952 255.682 26.6347 256.919 28C258.157 29.344 258.775 31.2 258.775 33.568V44H253.335V34.304C253.335 33.1093 253.026 32.1813 252.407 31.52C251.789 30.8587 250.957 30.528 249.911 30.528C248.866 30.528 248.034 30.8587 247.415 31.52C246.797 32.1813 246.487 33.1093 246.487 34.304V44H241.015V20.32H246.487V28.544C247.042 27.7547 247.799 27.1253 248.759 26.656C249.719 26.1867 250.797 25.952 251.991 25.952ZM279.41 34.784C279.41 35.296 279.378 35.8293 279.314 36.384H266.93C267.015 37.4933 267.367 38.3467 267.986 38.944C268.626 39.52 269.404 39.808 270.322 39.808C271.687 39.808 272.636 39.232 273.17 38.08H278.994C278.695 39.2533 278.151 40.3093 277.362 41.248C276.594 42.1867 275.623 42.9227 274.45 43.456C273.276 43.9893 271.964 44.256 270.514 44.256C268.764 44.256 267.207 43.8827 265.842 43.136C264.476 42.3893 263.41 41.3227 262.642 39.936C261.874 38.5493 261.49 36.928 261.49 35.072C261.49 33.216 261.863 31.5947 262.61 30.208C263.378 28.8213 264.444 27.7547 265.81 27.008C267.175 26.2613 268.743 25.888 270.514 25.888C272.242 25.888 273.778 26.2507 275.122 26.976C276.466 27.7013 277.511 28.736 278.258 30.08C279.026 31.424 279.41 32.992 279.41 34.784ZM273.81 33.344C273.81 32.4053 273.49 31.6587 272.85 31.104C272.21 30.5493 271.41 30.272 270.45 30.272C269.532 30.272 268.754 30.5387 268.114 31.072C267.495 31.6053 267.111 32.3627 266.962 33.344H273.81ZM306.198 28.768C306.198 30.0693 305.899 31.264 305.302 32.352C304.704 33.4187 303.787 34.2827 302.55 34.944C301.312 35.6053 299.776 35.936 297.942 35.936H294.55V44H289.078V21.536H297.942C299.734 21.536 301.248 21.8453 302.486 22.464C303.723 23.0827 304.651 23.936 305.27 25.024C305.888 26.112 306.198 27.36 306.198 28.768ZM297.526 31.584C298.571 31.584 299.35 31.3387 299.862 30.848C300.374 30.3573 300.63 29.664 300.63 28.768C300.63 27.872 300.374 27.1787 299.862 26.688C299.35 26.1973 298.571 25.952 297.526 25.952H294.55V31.584H297.526ZM314.519 29.12C315.159 28.1387 315.959 27.3707 316.919 26.816C317.879 26.24 318.945 25.952 320.119 25.952V31.744H318.615C317.249 31.744 316.225 32.0427 315.543 32.64C314.86 33.216 314.519 34.24 314.519 35.712V44H309.047V26.144H314.519V29.12ZM325.486 24.288C324.526 24.288 323.737 24.0107 323.118 23.456C322.521 22.88 322.222 22.176 322.222 21.344C322.222 20.4907 322.521 19.7867 323.118 19.232C323.737 18.656 324.526 18.368 325.486 18.368C326.425 18.368 327.193 18.656 327.79 19.232C328.409 19.7867 328.718 20.4907 328.718 21.344C328.718 22.176 328.409 22.88 327.79 23.456C327.193 24.0107 326.425 24.288 325.486 24.288ZM328.206 26.144V44H322.734V26.144H328.206ZM331.084 35.072C331.084 33.216 331.457 31.5947 332.204 30.208C332.972 28.8213 334.028 27.7547 335.372 27.008C336.737 26.2613 338.294 25.888 340.044 25.888C342.284 25.888 344.15 26.4747 345.644 27.648C347.158 28.8213 348.15 30.4747 348.62 32.608H342.796C342.305 31.2427 341.356 30.56 339.948 30.56C338.945 30.56 338.145 30.9547 337.548 31.744C336.95 32.512 336.652 33.6213 336.652 35.072C336.652 36.5227 336.95 37.6427 337.548 38.432C338.145 39.2 338.945 39.584 339.948 39.584C341.356 39.584 342.305 38.9013 342.796 37.536H348.62C348.15 39.6267 347.158 41.2693 345.644 42.464C344.129 43.6587 342.262 44.256 340.044 44.256C338.294 44.256 336.737 43.8827 335.372 43.136C334.028 42.3893 332.972 41.3227 332.204 39.936C331.457 38.5493 331.084 36.928 331.084 35.072ZM368.378 34.784C368.378 35.296 368.347 35.8293 368.283 36.384H355.899C355.984 37.4933 356.336 38.3467 356.955 38.944C357.595 39.52 358.373 39.808 359.291 39.808C360.656 39.808 361.605 39.232 362.139 38.08H367.963C367.664 39.2533 367.12 40.3093 366.331 41.248C365.563 42.1867 364.592 42.9227 363.419 43.456C362.245 43.9893 360.933 44.256 359.483 44.256C357.733 44.256 356.176 43.8827 354.811 43.136C353.445 42.3893 352.379 41.3227 351.611 39.936C350.843 38.5493 350.459 36.928 350.459 35.072C350.459 33.216 350.832 31.5947 351.579 30.208C352.347 28.8213 353.413 27.7547 354.779 27.008C356.144 26.2613 357.712 25.888 359.483 25.888C361.211 25.888 362.747 26.2507 364.091 26.976C365.435 27.7013 366.48 28.736 367.227 30.08C367.995 31.424 368.378 32.992 368.378 34.784ZM362.779 33.344C362.779 32.4053 362.459 31.6587 361.819 31.104C361.179 30.5493 360.379 30.272 359.419 30.272C358.501 30.272 357.723 30.5387 357.083 31.072C356.464 31.6053 356.08 32.3627 355.931 33.344H362.779Z" fill="#1E1E1D"/>
<g filter="url(#filter0_d_1_67)">
<path d="M4.84704 19.4501C7.12536 8.85593 17.7888 2.30975 28.2671 5.07286L36.1255 7.14514C38.3598 7.73433 40.6829 7.91102 42.9806 7.66652L62.1364 5.62822C66.4387 5.17043 70.7683 6.19468 74.4094 8.5316L77.7622 10.6835C85.7199 15.7908 88.7109 25.9724 84.78 34.5722L81.9104 40.8501C80.8319 43.2095 80.2738 45.7732 80.2738 48.3674V52.7838C80.2738 62.841 70.4893 69.9916 60.9071 66.9371C58.5202 66.1762 55.9797 66.0313 53.5218 66.516L42.0703 68.7739C37.1195 69.7501 31.9838 68.7167 27.7959 65.9019L17.2597 58.8202C14.4044 56.9011 12.1238 54.2427 10.6611 51.1287L4.72596 38.4925C2.95764 34.7277 2.47359 30.4867 3.34809 26.4202L4.84704 19.4501Z" fill="#1E1E1D"/>
</g>
<path d="M39.0807 39.6873C45.1956 39.6873 50.1527 34.7302 50.1527 28.6152C50.1527 22.5003 45.1956 17.5432 39.0807 17.5432C32.9658 17.5432 28.0087 22.5003 28.0087 28.6152C28.0087 34.7302 32.9658 39.6873 39.0807 39.6873Z" stroke="white" stroke-width="4" stroke-linecap="round" stroke-linejoin="round"/>
<path d="M57.7002 32.9887C59.4446 33.6391 60.9969 34.7188 62.2134 36.128C63.43 37.5372 64.2716 39.2305 64.6603 41.0511C65.0491 42.8718 64.9725 44.7611 64.4376 46.5443C63.9027 48.3275 62.9268 49.947 61.6002 51.2532C60.2735 52.5593 58.6389 53.5098 56.8476 54.0168C55.0563 54.5238 53.166 54.5709 51.3516 54.1537C49.5373 53.7366 47.8574 52.8687 46.4673 51.6303C45.0772 50.3919 44.0219 48.823 43.3988 47.0686" stroke="white" stroke-width="4" stroke-linecap="round" stroke-linejoin="round"/>
<path d="M37.2354 24.9246H39.0807V32.3059" stroke="white" stroke-width="3" stroke-linecap="round" stroke-linejoin="round"/>
<path d="M55.1536 39.4659L56.4453 40.776L51.2415 45.9799" stroke="white" stroke-width="3" stroke-linecap="round" stroke-linejoin="round"/>
<defs>
<filter id="filter0_d_1_67" x="0.92334" y="2.73939" width="87.5786" height="68.6935" filterUnits="userSpaceOnUse" color-interpolation-filters="sRGB">
<feFlood flood-opacity="0" result="BackgroundImageFix"/>
<feColorMatrix in="SourceAlpha" type="matrix" values="0 0 0 0 0 0 0 0 0 0 0 0 0 0 0 0 0 0 127 0" result="hardAlpha"/>
<feOffset dy="0.3"/>
<feGaussianBlur stdDeviation="1"/>
<feComposite in2="hardAlpha" operator="out"/>
<feColorMatrix type="matrix" values="0 0 0 0 0 0 0 0 0 0 0 0 0 0 0 0 0 0 0.25 0"/>
<feBlend mode="normal" in2="BackgroundImageFix" result="effect1_dropShadow_1_67"/>
<feBlend mode="normal" in="SourceGraphic" in2="effect1_dropShadow_1_67" result="shape"/>
</filter>
</defs>
</svg>
