<svg width="381" height="213" viewBox="0 0 381 213" fill="none" xmlns="http://www.w3.org/2000/svg">
<g clip-path="url(#clip0_17_2)">
<path d="M111.484 127.774H151.593C152.559 127.774 153.229 127.13 153.553 126.284C165.348 95.473 163.003 60.2039 147.435 31.1402C147.101 30.5165 146.375 30.1348 145.68 30.1348C102.227 30.1348 58.7734 30.1348 15.3202 30.1348C14.6252 30.1348 13.899 30.5165 13.565 31.1402C-2.00272 60.2039 -4.34784 95.473 7.44669 126.284C7.77091 127.131 8.45024 127.774 9.40688 127.774H54.9142C57.5303 127.774 57.5346 123.714 54.9142 123.714H9.40688L11.3671 125.204C-0.0457026 95.391 1.98864 61.3554 17.0755 33.1893L15.3202 34.1947C58.7734 34.1947 102.227 34.1947 145.68 34.1947L143.925 33.1893C159.011 61.3555 161.046 95.3911 149.633 125.204L151.593 123.714H111.484C108.868 123.714 108.863 127.774 111.484 127.774Z" fill="#01010C"/>
<path d="M85.8638 138.535C100.58 138.694 114.486 128.383 118.301 114.107C122.031 100.154 116.087 84.5388 104.262 76.3449C91.8 67.7108 74.1233 67.8218 61.7438 76.5208C49.0781 85.421 42.8211 101.587 47.9949 116.473C53.2241 131.52 70.672 141.474 86.4042 138.462C88.971 137.971 87.8842 134.057 85.3234 134.547C73.1765 136.873 58.7535 129.59 53.2798 118.628C47.2038 106.461 50.6104 91.9104 60.3972 82.7979C70.3737 73.5088 85.643 71.3629 97.8947 77.3247C109.464 82.9546 116.397 95.6569 115.21 108.424C113.844 123.115 100.506 134.633 85.8638 134.475C83.2469 134.447 83.245 138.506 85.8638 138.535Z" fill="#01010C"/>
<path d="M119.109 105.482C127.383 86.5568 122.11 62.7125 103.164 52.5992C83.8402 42.2845 59.0317 48.3039 47.2119 66.9062C40.1333 78.0465 39.6133 92.0973 45.1792 103.951C46.2892 106.315 49.7951 104.256 48.6898 101.902C39.5798 82.5003 50.8335 59.9277 70.7763 53.3961C88.3629 47.6362 110.33 55.6445 116.643 73.8231C119.937 83.3094 119.629 94.2149 115.598 103.433C114.562 105.804 118.063 107.874 119.109 105.482Z" fill="#01010C"/>
<path d="M27.335 31.5762C26.5154 29.323 25.4657 26.7757 26.075 24.3449C26.643 22.079 28.6268 21.2482 30.6849 20.6272C36.006 19.0218 41.5157 18.0362 47.0543 17.6093L45.0215 15.5794C45.3688 20.8258 45.7161 26.0722 46.0633 31.3187C46.235 33.9123 50.3018 33.9314 50.1289 31.3187C49.7817 26.0722 49.4344 20.8258 49.0871 15.5794C49.019 14.5498 48.2092 13.4604 47.0543 13.5494C43.6953 13.8083 40.3467 14.2482 37.0396 14.8928C33.9625 15.4926 30.7553 16.1478 27.8379 17.3187C25.0336 18.4442 22.7938 20.4 22.1087 23.4495C21.3977 26.6147 22.3375 29.6944 23.4146 32.6556C24.301 35.0921 28.2313 34.0402 27.335 31.5762Z" fill="#01010C"/>
<path d="M143.335 30.1348C133.442 28.8462 124.48 23.3894 118.745 15.2533C116.182 11.6179 114.053 7.67253 110.42 4.95317C106.963 2.36566 102.794 1.14188 98.5628 0.562521C94.0256 -0.0587068 89.3951 -0.0323983 84.8243 0.0315866C79.8691 0.100931 74.7684 0.429165 70.0705 2.13508C66.0498 3.59515 62.3638 5.91162 59.7487 9.33936C56.7585 13.2587 55.5175 19.678 50.1008 20.9597C47.556 21.5619 48.6333 25.4776 51.1816 24.8746C55.4307 23.8692 57.9773 20.6154 59.9799 16.9495C62.6004 12.1524 65.1687 8.50699 70.4004 6.35635C75.3581 4.31836 80.7821 4.11233 86.0735 4.08234C90.8778 4.05511 95.8448 3.94831 100.558 5.00647C105.715 6.16415 109.403 8.75283 112.411 13.073C114.921 16.6783 117.167 20.3176 120.361 23.3867C126.667 29.446 134.702 33.0703 143.335 34.1947C145.922 34.5317 145.897 30.4685 143.335 30.1348Z" fill="#01010C"/>
</g>
<g clip-path="url(#clip1_17_2)">
<path d="M206.337 134.01C200.634 134.586 195.531 137.987 192.765 143.04C189.839 148.386 190.18 154.88 193.353 160.049C200.31 171.382 217.022 171.437 225.15 161.43C227.392 158.669 229.146 155.151 228.576 151.497C228.105 148.479 225.783 145.711 222.685 145.282C220.69 145.006 219.827 148.068 221.842 148.347C224.199 148.673 225.579 150.762 225.522 153.074C225.457 155.747 223.81 158.286 222.04 160.177C218.811 163.627 214.213 165.719 209.478 165.7C204.457 165.681 199.42 163.331 196.536 159.138C193.85 155.232 193.026 150.14 194.958 145.732C196.951 141.186 201.367 137.69 206.337 137.188C208.347 136.985 208.368 133.804 206.337 134.01Z" fill="#01010C"/>
<path d="M183.199 208.219C183.078 201.483 182.896 193.627 187.741 188.298C192.679 182.867 200.879 183.764 207.516 183.829C211.301 183.866 215.086 183.903 218.871 183.94C220.853 183.959 223.336 183.622 224.772 185.346C225.781 186.556 226.141 188.698 226.631 190.173C229.039 197.416 231.446 204.659 233.854 211.902C234.496 213.833 237.558 213.005 236.911 211.057C235.413 206.55 233.914 202.044 232.416 197.537C231.05 193.425 229.966 189.05 228.204 185.09C226.689 181.686 223.928 180.865 220.419 180.776C215.778 180.659 211.127 180.686 206.484 180.641C199.212 180.57 190.857 180.177 185.5 186.05C180.016 192.062 179.892 200.55 180.029 208.219C180.066 210.262 183.236 210.269 183.199 208.219Z" fill="#01010C"/>
</g>
<g clip-path="url(#clip2_17_2)">
<path d="M282.337 95.0095C276.634 95.5858 271.531 98.9874 268.765 104.04C265.839 109.386 266.18 115.88 269.353 121.049C276.31 132.382 293.022 132.437 301.15 122.43C303.392 119.669 305.146 116.151 304.576 112.497C304.105 109.479 301.783 106.711 298.685 106.282C296.69 106.006 295.827 109.068 297.842 109.347C300.199 109.673 301.579 111.762 301.522 114.074C301.457 116.747 299.81 119.286 298.04 121.177C294.811 124.627 290.213 126.719 285.478 126.7C280.457 126.681 275.42 124.331 272.536 120.138C269.85 116.232 269.026 111.14 270.958 106.732C272.951 102.186 277.367 98.6903 282.337 98.1881C284.347 97.9849 284.368 94.8043 282.337 95.0095Z" fill="#01010C"/>
<path d="M259.199 169.219C259.078 162.483 258.896 154.627 263.741 149.298C268.679 143.867 276.879 144.764 283.516 144.829C287.301 144.866 291.086 144.903 294.871 144.94C296.853 144.959 299.336 144.622 300.772 146.346C301.781 147.556 302.141 149.698 302.631 151.173C305.039 158.416 307.446 165.659 309.854 172.902C310.496 174.833 313.558 174.005 312.911 172.057C311.413 167.55 309.914 163.044 308.416 158.537C307.05 154.425 305.966 150.05 304.204 146.09C302.689 142.686 299.928 141.865 296.419 141.776C291.778 141.659 287.127 141.686 282.484 141.641C275.212 141.57 266.857 141.177 261.5 147.05C256.016 153.062 255.892 161.55 256.029 169.219C256.066 171.262 259.236 171.269 259.199 169.219Z" fill="#01010C"/>
</g>
<g clip-path="url(#clip3_17_2)">
<path d="M350.337 48.0095C344.634 48.5858 339.531 51.9874 336.765 57.0404C333.839 62.3857 334.18 68.8803 337.353 74.049C344.31 85.3825 361.022 85.4369 369.15 75.4302C371.392 72.6694 373.146 69.1508 372.576 65.4967C372.105 62.4786 369.783 59.7105 366.685 59.2817C364.69 59.0056 363.827 62.0678 365.842 62.3467C368.199 62.673 369.579 64.7617 369.522 67.074C369.457 69.7466 367.81 72.2856 366.04 74.1768C362.811 77.6269 358.213 79.719 353.478 79.7005C348.457 79.6809 343.42 77.3306 340.536 73.1377C337.85 69.2319 337.026 64.14 338.958 59.7316C340.951 55.186 345.367 51.6903 350.337 51.1881C352.347 50.985 352.368 47.8043 350.337 48.0095Z" fill="#01010C"/>
<path d="M327.199 122.219C327.078 115.483 326.896 107.627 331.741 102.298C336.679 96.8669 344.879 97.7645 351.516 97.8291C355.301 97.866 359.086 97.9029 362.871 97.9397C364.853 97.959 367.336 97.6217 368.772 99.3456C369.781 100.556 370.141 102.698 370.631 104.173C373.039 111.416 375.446 118.659 377.854 125.902C378.496 127.833 381.558 127.005 380.911 125.057C379.413 120.55 377.914 116.044 376.416 111.537C375.05 107.425 373.966 103.05 372.204 99.0903C370.689 95.6863 367.928 94.865 364.419 94.7763C359.778 94.6589 355.127 94.6858 350.484 94.6405C343.212 94.5697 334.857 94.1774 329.5 100.05C324.016 106.062 323.892 114.55 324.029 122.219C324.066 124.262 327.236 124.269 327.199 122.219Z" fill="#01010C"/>
</g>
<g clip-path="url(#clip4_17_2)">
<path d="M240.806 85.2081C247.474 88.5689 254.685 90.8004 262.373 90.4582L261.792 91.7438C257.74 88.4053 254.773 84.5931 252.902 79.8893C252.742 79.4868 253.086 79.0908 253.476 78.9628C261.898 76.1968 266.675 67.2884 265.122 59.3882C263.434 50.8054 255.665 44.0075 246.733 41.5891C236.721 38.8782 225.559 41.2734 218.415 48.3707C211.818 54.9246 209.736 64.3637 213.487 72.6564C215.637 77.4098 219.569 81.295 224.619 83.5424C229.612 85.7641 234.798 85.9489 240.174 85.1322C241.207 84.9752 241.652 86.4264 240.61 86.5846C235.439 87.3701 230.508 87.3655 225.558 85.5548C220.727 83.7872 216.638 80.6923 213.885 76.6374C208.293 68.4018 208.814 57.7473 214.955 49.9003C221.464 41.5822 232.61 37.7217 243.55 39.3757C253.639 40.9011 262.917 47.4237 266.04 56.5201C269.246 65.8564 264.227 77.0277 253.912 80.4153L254.485 79.4888C256.258 83.9459 259.12 87.5208 262.953 90.6788C263.512 91.1392 263.042 91.9346 262.373 91.9644C254.408 92.319 246.885 89.9903 239.977 86.5087C239.051 86.0419 239.879 84.7407 240.806 85.2081Z" fill="#01010C"/>
<path d="M251.666 59.1819L250.512 56.3489L251.884 56.6812C249.738 58.7557 247.343 61.0431 244.187 61.7121C241.706 62.238 238.794 61.7684 237.146 59.8606C236.763 59.4173 236.437 58.6043 235.918 58.2878C234.886 57.6581 234.146 58.9567 233.652 59.5844C232.901 60.5397 231.955 61.2616 230.607 61.2645C227.438 61.2712 226.109 58.3785 225.342 56.0313C225.038 55.1007 226.622 54.7031 226.925 55.6308C227.323 56.8492 227.732 58.2782 228.844 59.1292C229.425 59.574 230.325 59.9122 231.087 59.6993C231.838 59.4898 232.224 58.8156 232.649 58.2696C233.87 56.7034 235.883 55.8633 237.423 57.5879C238.228 58.4901 238.658 59.4478 239.887 59.9684C241.023 60.4496 242.36 60.5168 243.575 60.2928C246.53 59.7481 248.738 57.5357 250.723 55.6162C251.18 55.1743 251.889 55.4426 252.095 55.9485L253.249 58.7815C253.619 59.6906 252.033 60.0832 251.666 59.1819Z" fill="#01010C"/>
<path d="M246.604 68.8544C246.777 68.6255 246.208 68.6 246.045 68.664C245.618 68.832 245.3 69.25 245.026 69.5731C244.475 70.2241 243.887 70.9151 242.983 71.1589C241.576 71.5389 240.424 70.6999 239.477 69.8535C238.673 69.1352 237.59 67.9594 236.604 69.1425C236.084 69.7651 235.828 70.5353 235.312 71.164C234.743 71.8575 234.017 72.3202 233.051 72.3576C231.995 72.3985 231.997 70.8922 233.051 70.8514C234.038 70.8132 234.468 69.4902 234.872 68.8405C235.348 68.0741 236.015 67.3527 236.995 67.1506C238.627 66.8137 239.799 68.0652 240.857 68.983C241.24 69.315 241.772 69.8097 242.356 69.7506C243.299 69.6554 243.886 68.3562 244.527 67.8238C245.283 67.1955 246.359 66.8319 247.302 67.3429C248.145 67.7995 248.618 68.8251 248.021 69.6146C247.423 70.4056 245.999 69.6535 246.604 68.8544Z" fill="#01010C"/>
</g>
<defs>
<clipPath id="clip0_17_2">
<rect width="161" height="139" fill="white"/>
</clipPath>
<clipPath id="clip1_17_2">
<rect width="57" height="79" fill="white" transform="translate(180 134)"/>
</clipPath>
<clipPath id="clip2_17_2">
<rect width="57" height="79" fill="white" transform="translate(256 95)"/>
</clipPath>
<clipPath id="clip3_17_2">
<rect width="57" height="79" fill="white" transform="translate(324 48)"/>
</clipPath>
<clipPath id="clip4_17_2">
<rect width="57" height="53" fill="white" transform="matrix(-1 0 0 1 267 39)"/>
</clipPath>
</defs>
</svg>
