<svg width="418" height="144" viewBox="0 0 418 144" fill="none" xmlns="http://www.w3.org/2000/svg">
<g clip-path="url(#clip0_2_363)">
<path d="M391.024 40.0487C382.395 42.297 383.344 52.0107 379.176 58.0703C374.507 64.8576 364.855 65.9841 357.622 63.3523C353.311 61.7838 349.483 59.1091 346.123 56.0182C343.145 53.2793 340.751 49.9592 337.736 47.2745C335.157 44.9781 332.113 43.4621 328.591 43.8007C324.016 44.2404 319.667 47.0598 315.629 49.043C306.389 53.5821 297.148 58.1211 287.908 62.6602C280.204 66.4444 271.409 69.6603 264.675 75.1038C258.667 79.9609 256.334 87.2574 259.389 94.5455C261.549 99.6988 266.463 105.026 271.636 107.3C277.302 109.79 284.39 109.923 290.451 110.407C300.986 111.248 311.569 111.53 322.134 111.658C344.322 111.928 366.646 111.631 388.767 109.754C396.352 109.111 405.958 108.863 412.474 104.502C420.38 99.2117 416.168 90.5628 413.333 83.5344C409.346 73.6515 405.358 63.7686 401.371 53.8857C399.415 49.0375 397.459 44.1893 395.504 39.3411C395.059 38.2399 393.968 37.6556 392.844 38.2571C391.871 38.7782 390.897 39.2993 389.923 39.8204C387.867 40.9208 389.694 44.0534 391.751 42.9528C392.724 42.4317 393.698 41.9106 394.672 41.3895L392.012 40.3055C395.774 49.629 399.535 58.9525 403.297 68.2759C405.102 72.7512 406.908 77.2265 408.713 81.7018C410.409 85.9056 413.266 90.7807 413.606 95.3469C414.3 104.662 398.311 105.23 391.603 105.872C371.38 107.807 350.94 108.126 330.638 108.089C320.129 108.07 309.613 107.89 299.116 107.341C291.836 106.961 284.414 106.6 277.252 105.145C267.816 103.228 256.947 91.4062 263.499 81.5677C267.945 74.8919 277.548 71.7787 284.404 68.4112C292.934 64.2213 301.463 60.0314 309.993 55.8415C314.879 53.4416 319.714 50.7986 324.712 48.6426C327.504 47.4381 330.344 46.7985 333.142 48.3405C334.779 49.242 336.096 50.6612 337.347 52.0237C343.264 58.4687 349.4 64.7408 358.041 67.3074C364.836 69.3254 372.666 68.3847 378.385 64.0264C381.325 61.7855 383.219 58.8449 384.464 55.389C386.027 51.0518 386.74 44.9138 391.987 43.5468C394.24 42.9598 393.285 39.4599 391.024 40.0487Z" fill="#01010C"/>
<path d="M283.205 65.8701C281.138 68.745 280.997 72.5418 281.531 75.914C281.679 76.854 282.899 77.4592 283.757 77.1809C284.776 76.8505 285.181 75.9569 285.022 74.9497C285.005 74.8452 284.989 74.7405 284.974 74.6357C285.002 74.8578 285.003 74.8629 284.977 74.651C284.956 74.4462 284.933 74.2418 284.917 74.0365C284.885 73.6379 284.868 73.2381 284.867 72.8382C284.867 72.454 284.881 72.0697 284.913 71.6867C284.927 71.504 284.934 71.3108 284.97 71.1308C284.872 71.6202 284.979 71.1096 284.998 71.0049C285.117 70.3393 285.305 69.7009 285.537 69.0668C285.611 68.8824 285.598 68.9121 285.498 69.156C285.531 69.0811 285.565 69.0066 285.6 68.9327C285.67 68.7867 285.744 68.6426 285.822 68.5011C285.975 68.2237 286.146 67.9582 286.331 67.7011C286.887 66.9286 286.49 65.6473 285.682 65.2195C284.745 64.7237 283.798 65.0456 283.205 65.8701Z" fill="#01010C"/>
<path d="M291.427 61.7826C289.353 64.5111 289.507 68.4495 290.352 71.5909C290.598 72.5069 291.652 73.1582 292.579 72.8577C293.516 72.5537 294.107 71.6082 293.843 70.6265C293.735 70.2254 293.639 69.8217 293.562 69.4134C293.525 69.2186 293.477 69.0161 293.463 68.8181C293.498 69.3006 293.45 68.6574 293.442 68.5694C293.378 67.8557 293.373 67.1359 293.444 66.4227C293.492 65.9352 293.385 66.6931 293.455 66.3228C293.486 66.1563 293.513 65.9895 293.55 65.8239C293.621 65.5054 293.71 65.1907 293.82 64.8835C293.846 64.8089 293.874 64.7348 293.903 64.6612C293.794 64.9129 293.779 64.9497 293.858 64.7715C293.926 64.6339 293.99 64.4954 294.064 64.3609C294.208 64.099 294.373 63.8512 294.553 63.6135C294.818 63.2652 294.846 62.6158 294.736 62.2158C294.62 61.7951 294.296 61.3392 293.904 61.1319C292.948 60.6259 292.042 60.9734 291.427 61.7826Z" fill="#01010C"/>
<path d="M301.734 57.0722C300.351 59.5965 300.558 62.707 301.414 65.368C301.704 66.2695 302.683 66.9456 303.641 66.6348C304.541 66.3429 305.217 65.3706 304.905 64.4036C304.706 63.7831 304.543 63.1518 304.437 62.5083C304.423 62.4263 304.41 62.3441 304.398 62.2618C304.435 62.54 304.441 62.5787 304.416 62.3779C304.406 62.2574 304.392 62.1373 304.383 62.0166C304.36 61.7243 304.351 61.4311 304.355 61.1379C304.358 60.8573 304.38 60.5795 304.406 60.3002C304.442 59.9067 304.323 60.7367 304.402 60.3552C304.43 60.2179 304.453 60.0799 304.484 59.9432C304.538 59.7127 304.604 59.4848 304.684 59.262C304.849 58.8001 304.547 59.5207 304.686 59.2428C304.744 59.129 304.799 59.0149 304.86 58.9031C305.315 58.0714 305.091 56.8874 304.21 56.4215C303.362 55.9725 302.22 56.1839 301.734 57.0722Z" fill="#01010C"/>
<path d="M309.871 52.8024C308.833 55.7022 308.846 59.0345 309.932 61.9189C310.265 62.8039 311.169 63.5067 312.159 63.1857C313.022 62.9059 313.781 61.905 313.423 60.9545C313.187 60.3278 313 59.6854 312.874 59.0274C312.838 58.8414 312.796 58.6505 312.779 58.4616C312.808 58.7773 312.795 58.5664 312.777 58.3739C312.746 58.0404 312.73 57.7055 312.727 57.3705C312.725 57.0355 312.736 56.7001 312.762 56.3661C312.773 56.2227 312.789 56.0801 312.803 55.9371C312.829 55.7286 312.826 55.7469 312.795 55.992C312.81 55.8973 312.825 55.8028 312.842 55.7084C312.959 55.0465 313.136 54.3994 313.363 53.7668C313.683 52.8724 313.002 51.7418 312.098 51.5356C311.081 51.3034 310.214 51.8448 309.871 52.8024Z" fill="#01010C"/>
<path d="M259 86.4881C265.117 93.1541 274.425 94.3036 282.907 95.4821C294.033 97.0279 305.207 98.2014 316.413 98.9787C338.392 100.503 360.957 101.12 382.913 98.8864C393.909 97.7678 404.591 95.1498 414.23 89.5891C416.249 88.4246 414.428 85.2887 412.403 86.4567C395.266 96.3424 374.736 96.2425 355.524 96.4724C334.178 96.7278 312.814 95.5615 291.621 92.9902C281.893 91.8099 268.705 91.7087 261.56 83.923C259.98 82.2007 257.425 84.7712 259 86.4881Z" fill="#01010C"/>
</g>
<g clip-path="url(#clip1_2_363)">
<path d="M65.8673 109.471C82.4865 84.1246 99.1058 58.7782 115.725 33.4319C119.355 27.8958 122.371 23.2264 122.094 16.4387C121.956 13.0544 122.323 9.60085 121.543 6.26628C119.767 -1.32285 111.841 -0.562015 105.822 1.09048C103.261 1.79383 100.53 2.23191 98.1535 3.45493C95.6629 4.73658 93.5666 6.72787 91.6467 8.732C86.6121 13.9876 81.7239 19.389 76.7339 24.6877C66.5623 35.4884 56.3159 46.2185 46.1196 56.9959C40.8746 62.5399 35.6426 68.0962 30.4409 73.6808C27.6744 76.6508 25.0901 78.9188 21.6363 81.0654C18.9297 82.7476 15.7834 84.244 13.4293 86.4102C6.27589 92.9926 19.7395 100.513 24.2144 104.063C32.3945 110.552 40.5918 117.02 48.7608 123.523C51.5544 125.746 55.83 130.62 59.7468 128.627C62.2775 127.339 62.6271 124.02 63.1755 121.581C63.596 119.711 64.0165 117.841 64.437 115.971C64.6706 114.932 64.9042 113.893 65.1378 112.854C65.2801 112.221 65.3672 110.115 65.5609 109.867C67.0951 107.905 64.3411 105.116 62.7901 107.1C61.5042 108.745 61.3881 111.685 60.9388 113.684C60.2475 116.758 59.9788 120.547 58.7362 123.437C57.7331 125.77 56.9117 124.956 55.4162 123.858C54.8824 123.466 54.3758 123.024 53.8584 122.61C52.561 121.574 51.2614 120.539 49.9612 119.506C43.4609 114.339 36.9464 109.19 30.4385 104.033C27.4436 101.66 24.4491 99.2864 21.4603 96.9056C20.4504 96.1011 19.4376 95.2998 18.4334 94.4882C17.7547 93.9397 16.9101 93.4275 16.3788 92.7365C14.8177 90.7067 15.8483 89.3613 17.659 88.1459C20.2996 86.3736 23.0783 84.7778 25.7794 83.0989C28.6039 81.3435 30.5106 79.3499 32.7782 76.9139C37.2561 72.1033 41.7569 67.3141 46.2694 62.5359C55.1464 53.1366 64.0696 43.7809 72.9561 34.3905C77.4731 29.6174 81.9809 24.8355 86.4681 20.0344C90.4144 15.8121 94.285 10.3378 99.2914 7.30695C101.497 5.97173 104.38 5.54662 106.864 4.86443C108.86 4.31637 110.929 3.8122 113.01 3.80359C115.629 3.79279 117.169 4.72145 117.764 7.30672C118.422 10.166 118.092 13.2059 118.174 16.1118C118.265 19.343 118.059 21.8179 116.524 24.7822C115.026 27.6743 113.064 30.355 111.281 33.0744C95.0151 57.8815 78.7494 82.6886 62.4838 107.496C61.0982 109.609 64.4897 111.572 65.8673 109.471Z" fill="#01010C"/>
<path d="M53.2384 48.34C42.3153 48.7064 31.3921 49.0728 20.4689 49.4392C16.0078 49.5888 11.3475 49.5503 7.54705 52.2306C4.26669 54.544 2.17922 58.0897 0.254228 61.5196C-0.12905 62.2025 -0.118627 63.3573 0.560574 63.891C7.60473 69.4263 14.6489 74.9617 21.6931 80.497C23.6535 82.0375 26.4451 79.2865 24.4638 77.7295C17.4197 72.1942 10.3755 66.6589 3.33135 61.1236L3.6377 63.495C5.44818 60.2691 7.41181 56.5905 10.8169 54.7959C14.7722 52.7112 20.2294 53.361 24.5651 53.2155C34.1229 52.8949 43.6806 52.5743 53.2384 52.2537C55.7533 52.1694 55.7648 48.2552 53.2384 48.34Z" fill="#01010C"/>
<path d="M83.9347 75.8494C85.8693 84.8549 87.8038 93.8605 89.7384 102.866C90.6461 107.091 92.4342 111.978 91.9583 116.327C91.4874 120.63 87.9862 123.811 85.016 126.608H87.7868C80.7021 121.125 73.6174 115.641 66.5327 110.158C64.5634 108.633 61.7704 111.384 63.7619 112.925C70.8466 118.409 77.9313 123.892 85.016 129.376C85.8728 130.039 86.9362 130.177 87.7868 129.376C90.8092 126.529 93.9211 123.454 95.2656 119.42C96.7495 114.966 95.3236 110.236 94.3767 105.828C92.1556 95.4884 89.9344 85.1487 87.7132 74.809C87.1845 72.3476 83.4062 73.3892 83.9347 75.8494Z" fill="#01010C"/>
<path d="M32.4588 110.563C25.7618 111.501 18.487 112.949 14.4372 118.949C12.3908 121.98 12.188 125.756 11.6945 129.269C11.1216 133.348 10.5487 137.426 9.97584 141.505C9.77989 142.9 10.8052 144.379 12.3859 143.912C16.4063 142.723 20.6102 143.4 24.7314 143.148C28.7435 142.904 32.6654 141.673 35.3749 138.556C41.5094 131.498 39.5598 121.941 37.3549 113.743C36.7013 111.313 32.9203 112.344 33.5764 114.783C35.4184 121.632 37.7837 130.683 32.0186 136.413C29.4345 138.982 25.8048 139.292 22.3453 139.297C18.6507 139.304 14.9338 139.076 11.3442 140.138L13.7543 142.545C14.2606 138.941 14.7669 135.337 15.2732 131.732C15.7279 128.496 15.729 124.577 17.3614 121.669C20.501 116.075 27.7768 115.138 33.5005 114.336C34.5564 114.189 35.1133 112.856 34.8689 111.929C34.5707 110.8 33.5017 110.416 32.4588 110.563Z" fill="#01010C"/>
<path d="M97.2108 24.6302C98.0424 24.7116 98.8779 24.769 99.7065 24.878L99.1857 24.8081C99.5427 24.8565 99.9052 24.914 100.24 25.0513L99.7725 24.854C99.8981 24.9076 100.016 24.9728 100.125 25.0551L99.7284 24.7492C99.826 24.8258 99.9116 24.9131 99.9886 25.0103L99.6822 24.6142C99.8369 24.8162 99.9484 25.0452 100.048 25.2783L99.8502 24.8108C100.131 25.4815 100.342 26.1818 100.584 26.8671C100.755 27.3526 101.029 27.7704 101.484 28.0366C101.904 28.2821 102.523 28.386 102.994 28.2339C103.946 27.926 104.726 26.8605 104.362 25.8267C104.16 25.2534 103.974 24.674 103.761 24.1048C103.577 23.6139 103.393 23.0899 103.082 22.6608C102.597 21.9914 102.04 21.5673 101.269 21.2718C100.738 21.0684 100.15 21.0192 99.5916 20.9495C98.8005 20.8508 98.004 20.7941 97.2108 20.7164C96.74 20.6703 96.1474 20.968 95.8254 21.2896C95.4856 21.629 95.2297 22.1858 95.2515 22.6733C95.2742 23.1794 95.4407 23.7043 95.8254 24.057C96.2291 24.4272 96.6665 24.5769 97.2108 24.6302Z" fill="#01010C"/>
</g>
<path d="M175.182 45.9279C188.061 59.8152 200.939 73.7025 213.817 87.5898L214.954 83.275C197.236 90.2435 181.213 100.706 167.794 114.241C165.454 116.601 169.097 120.254 171.439 117.892C184.203 105.018 199.455 94.8883 216.325 88.2537C218.128 87.5444 218.876 85.4643 217.462 83.9389C204.584 70.0516 191.706 56.1643 178.828 42.277C176.565 39.8372 172.926 43.4946 175.182 45.9279Z" fill="#01010C"/>
<defs>
<clipPath id="clip0_2_363">
<rect width="158.976" height="73.728" fill="white" transform="translate(258.048 38.016)"/>
</clipPath>
<clipPath id="clip1_2_363">
<rect width="122.112" height="144" fill="white"/>
</clipPath>
</defs>
</svg>
